<svg width="212" height="182" viewBox="0 0 212 182" fill="none" xmlns="http://www.w3.org/2000/svg">
<path fill-rule="evenodd" clip-rule="evenodd" d="M9 11.5096C9 10.1448 10.1467 9 11.5096 9H171.607C172.975 9 174.12 10.1464 174.12 11.5096V18.4669L91.5563 63.3504L9 18.467V11.5096ZM9 28.7111V134.793C9 136.156 10.1484 137.303 11.5096 137.303H118.468C118.424 136.473 118.402 135.638 118.402 134.797C118.402 108.952 139.344 88.0098 165.186 88.0098C168.241 88.0098 171.228 88.3028 174.12 88.8622V28.7108L93.7055 72.4259L91.5561 73.5944L89.4068 72.4259L9 28.7111ZM11.5096 146.303H119.828C124.955 166.574 143.316 181.576 165.186 181.576C191.02 181.576 211.957 160.63 211.957 134.797C211.957 115.309 200.053 98.6083 183.12 91.5718V11.5096C183.12 5.16263 177.933 0 171.607 0H11.5096C5.1861 0 0 5.16426 0 11.5096V134.793C0 141.133 5.18441 146.303 11.5096 146.303ZM165.186 97.0098C144.315 97.0098 127.402 113.922 127.402 134.797C127.402 155.66 144.315 172.576 165.186 172.576C186.047 172.576 202.957 155.661 202.957 134.797C202.957 113.921 186.047 97.0098 165.186 97.0098ZM150.218 139.297H180.136V130.297H150.218V139.297Z" fill="url(#paint0_linear_4082_2484)"/>
<defs>
<linearGradient id="paint0_linear_4082_2484" x1="0" y1="90.7882" x2="211.957" y2="90.7882" gradientUnits="userSpaceOnUse">
<stop stop-color="#53BCB8"/>
<stop offset="1" stop-color="#6FBA5F"/>
</linearGradient>
</defs>
</svg>
