<svg width="215" height="206" viewBox="0 0 215 206" fill="none" xmlns="http://www.w3.org/2000/svg">
<path d="M155.719 66.6923C149.196 31.0206 117.986 4 80.4781 4C38.2464 4 4 38.3235 4 80.6239C4 97.7014 9.62342 113.431 19.0707 126.183C12.8287 145.732 4 161.293 4 161.293C4 161.293 31.2734 161.293 49.4932 150.675C58.9968 154.888 69.4562 157.304 80.4781 157.304C89.9816 157.304 99.0915 155.563 107.47 152.417" stroke="url(#paint0_linear_4082_2466)" stroke-width="8" stroke-miterlimit="10" stroke-linecap="round" stroke-linejoin="round"/>
<path d="M161.456 80.3984V89.3866" stroke="url(#paint1_linear_4082_2466)" stroke-width="8" stroke-miterlimit="10" stroke-linecap="round"/>
<path d="M210.941 183.76V174.772C200.144 166.851 197.445 156.796 197.445 143.314V125.337C197.445 105.507 181.306 89.3848 161.456 89.3848C141.605 89.3848 125.466 105.507 125.466 125.337V138.82C125.466 152.302 122.767 166.851 111.97 174.772V183.76H210.941Z" stroke="url(#paint2_linear_4082_2466)" stroke-width="8" stroke-miterlimit="10" stroke-linejoin="round"/>
<path d="M174.951 192.752C174.951 197.695 168.934 201.74 161.455 201.74C153.976 201.74 147.959 197.695 147.959 192.752" stroke="url(#paint3_linear_4082_2466)" stroke-width="8" stroke-miterlimit="10" stroke-linejoin="round"/>
<path d="M80.4797 44.4453V93.8801" stroke="url(#paint4_linear_4082_2466)" stroke-width="8" stroke-miterlimit="10" stroke-linejoin="round"/>
<path d="M80.4797 102.871V116.353" stroke="url(#paint5_linear_4082_2466)" stroke-width="8" stroke-miterlimit="10" stroke-linejoin="round"/>
<defs>
<linearGradient id="paint0_linear_4082_2466" x1="4" y1="82.6463" x2="155.719" y2="82.6463" gradientUnits="userSpaceOnUse">
<stop stop-color="#53BCB8"/>
<stop offset="1" stop-color="#6FBA5F"/>
</linearGradient>
<linearGradient id="paint1_linear_4082_2466" x1="161.456" y1="84.8925" x2="162.456" y2="84.8925" gradientUnits="userSpaceOnUse">
<stop stop-color="#53BCB8"/>
<stop offset="1" stop-color="#6FBA5F"/>
</linearGradient>
<linearGradient id="paint2_linear_4082_2466" x1="111.97" y1="136.573" x2="210.941" y2="136.573" gradientUnits="userSpaceOnUse">
<stop stop-color="#53BCB8"/>
<stop offset="1" stop-color="#6FBA5F"/>
</linearGradient>
<linearGradient id="paint3_linear_4082_2466" x1="147.959" y1="197.246" x2="174.951" y2="197.246" gradientUnits="userSpaceOnUse">
<stop stop-color="#53BCB8"/>
<stop offset="1" stop-color="#6FBA5F"/>
</linearGradient>
<linearGradient id="paint4_linear_4082_2466" x1="80.4797" y1="69.1627" x2="81.4797" y2="69.1627" gradientUnits="userSpaceOnUse">
<stop stop-color="#53BCB8"/>
<stop offset="1" stop-color="#6FBA5F"/>
</linearGradient>
<linearGradient id="paint5_linear_4082_2466" x1="80.4797" y1="109.612" x2="81.4797" y2="109.612" gradientUnits="userSpaceOnUse">
<stop stop-color="#53BCB8"/>
<stop offset="1" stop-color="#6FBA5F"/>
</linearGradient>
</defs>
</svg>
