<svg width="189" height="188" viewBox="0 0 189 188" fill="none" xmlns="http://www.w3.org/2000/svg">
<path fill-rule="evenodd" clip-rule="evenodd" d="M168.793 79.2704L181.844 58.0335L157.426 52.146L161.425 27.5449L136.797 31.5399L130.903 7.14905L109.642 20.1856L94.9075 0L80.1725 20.1856L58.9122 7.14905L53.0182 31.5399L28.3898 27.5449L32.3893 52.146L7.97142 58.0335L21.0223 79.2704L0.814453 93.989L21.0223 108.708L7.97142 129.945L32.3893 135.832L28.3898 160.433L53.0182 156.438L58.9122 180.829L80.1725 167.792L94.9075 187.978L109.642 167.792L130.903 180.829L136.797 156.438L161.425 160.433L157.426 135.832L181.844 129.945L168.793 108.708L189 93.989L168.793 79.2704ZM167.951 124.267L147.532 129.104L150.9 149.92L130.061 146.556L125.219 166.951L107.327 156.018L94.9075 172.839L82.488 155.807L64.5956 166.741L59.7541 146.556L38.9148 149.92L42.2827 129.104L21.8643 124.267L32.8103 106.395L15.9704 93.989L33.0208 81.5833L22.0748 63.7107L42.4932 58.8746L39.1253 38.0582L59.9646 41.4225L64.8061 21.0266L82.6985 31.9605L95.118 14.9289L107.537 31.9605L125.43 21.0266L130.271 41.4225L151.111 38.0582L147.532 58.8746L167.951 63.7107L157.005 81.5833L174.055 93.989L157.005 106.395L167.951 124.267ZM94.9068 130.995C98.3944 130.995 101.222 128.171 101.222 124.687C101.222 121.203 98.3944 118.379 94.9068 118.379C91.4191 118.379 88.5918 121.203 88.5918 124.687C88.5918 128.171 91.4191 130.995 94.9068 130.995ZM90.4863 63.2891H99.3273V98.4035H90.4863V63.2891Z" fill="url(#paint0_linear_4082_2447)"/>
<defs>
<linearGradient id="paint0_linear_4082_2447" x1="0.814453" y1="93.989" x2="189" y2="93.989" gradientUnits="userSpaceOnUse">
<stop stop-color="#53BCB8"/>
<stop offset="1" stop-color="#6FBA5F"/>
</linearGradient>
</defs>
</svg>
