<svg width="178" height="178" viewBox="0 0 178 178" fill="none" xmlns="http://www.w3.org/2000/svg">
<path fill-rule="evenodd" clip-rule="evenodd" d="M167.972 89C167.972 132.615 132.615 167.972 89 167.972C45.3851 167.972 10.0282 132.615 10.0282 89C10.0282 45.3851 45.3851 10.0282 89 10.0282C132.615 10.0282 167.972 45.3851 167.972 89ZM178 89C178 138.153 138.153 178 89 178C39.8467 178 0 138.153 0 89C0 39.8467 39.8467 0 89 0C138.153 0 178 39.8467 178 89ZM46.3214 72.9796V116.113H56.4248V64.2752H38.8604V72.9796H46.3214ZM104.032 93.9636C102.374 91.632 100.12 89.9999 97.2706 89.0673C99.4467 87.9793 101.234 86.4767 102.633 84.5596C104.032 82.5908 104.732 80.2592 104.732 77.565C104.732 73.5237 103.307 70.104 100.457 67.3062C97.6074 64.5083 93.6178 63.1094 88.4884 63.1094C83.359 63.1094 79.3695 64.5083 76.5198 67.3062C73.6701 70.104 72.2453 73.5237 72.2453 77.565C72.2453 80.2592 72.9448 82.5908 74.3437 84.5596C75.7426 86.4767 77.5301 87.9793 79.7063 89.0673C76.8566 89.9999 74.6028 91.632 72.9448 93.9636C71.2868 96.2951 70.4578 98.9634 70.4578 101.969C70.4578 106.373 72.0899 110.025 75.354 112.927C78.67 115.828 83.0481 117.279 88.4884 117.279C93.9287 117.279 98.2809 115.828 101.545 112.927C104.861 110.025 106.519 106.373 106.519 101.969C106.519 98.9634 105.69 96.2951 104.032 93.9636ZM88.4884 84.8705C86.3641 84.8705 84.6284 84.197 83.2813 82.8498C81.9342 81.5027 81.2606 79.767 81.2606 77.6427C81.2606 75.5184 81.9342 73.7827 83.2813 72.4356C84.6284 71.0885 86.3641 70.4149 88.4884 70.4149C90.6127 70.4149 92.3484 71.0885 93.6955 72.4356C95.0427 73.7827 95.7162 75.5184 95.7162 77.6427C95.7162 79.767 95.0427 81.5027 93.6955 82.8498C92.3484 84.197 90.6127 84.8705 88.4884 84.8705ZM88.4884 109.352C86.2087 109.352 84.3175 108.601 82.815 107.098C81.3124 105.544 80.5612 103.601 80.5612 101.269C80.5612 98.9375 81.3124 97.0205 82.815 95.5179C84.3175 93.9636 86.2087 93.1864 88.4884 93.1864C90.7682 93.1864 92.6593 93.9636 94.1619 95.5179C95.6644 97.0205 96.4157 98.9375 96.4157 101.269C96.4157 103.601 95.6644 105.544 94.1619 107.098C92.6593 108.601 90.7682 109.352 88.4884 109.352ZM113.93 85.4146V94.119H126.054V106.243H135.536V94.119H147.66V85.4146H135.536V73.2905H126.054V85.4146H113.93Z" fill="url(#paint0_linear_4082_2526)"/>
<defs>
<linearGradient id="paint0_linear_4082_2526" x1="0" y1="89" x2="178" y2="89" gradientUnits="userSpaceOnUse">
<stop stop-color="#53BCB8"/>
<stop offset="1" stop-color="#6FBA5F"/>
</linearGradient>
</defs>
</svg>
