<svg width="72" height="53" viewBox="0 0 72 53" fill="none" xmlns="http://www.w3.org/2000/svg">
<path d="M70.0813 0.394531H60.7009C59.635 0.394531 58.7822 1.2535 58.7822 2.31862C58.7822 3.4181 59.5995 4.27707 60.7009 4.27707H62.975H70.0813C71.1472 4.27707 72 3.4181 72 2.35298C72 1.2535 71.1472 0.394531 70.0813 0.394531Z" fill="#00B085"/>
<path d="M8.04298 13.4168C6.9415 13.4168 6.01768 12.5579 6.01768 11.4584C6.01768 10.3933 6.9415 9.5343 8.04298 9.5343H25.7022C26.6616 9.5343 27.2301 9.05327 27.4077 8.40046C27.5143 7.98815 28.225 6.88867 29.6818 6.88867H57.3964L57.5741 6.92303L57.6452 7.06047V10.7712L57.5741 10.9086C57.4675 10.943 57.3609 10.943 57.3609 10.943H49.8282C48.9044 10.943 48.1227 11.5958 48.1227 12.4891V37.2274C48.1227 37.2274 48.1227 38.4987 47.0567 39.1859C47.0567 39.1859 39.1332 44.1335 38.6713 44.4427C38.2804 44.7176 37.3566 45.0612 36.5749 44.5115C35.9709 44.0992 35.9353 43.1371 35.9353 43.1371V12.8671C35.9353 11.3553 35.0115 10.9086 33.91 10.9086H30.2147C29.0777 10.9086 28.6513 11.3209 28.4737 11.9738C28.3671 12.3861 27.7986 13.3825 26.2707 13.3825H25.1692C24.4586 13.3825 23.8546 13.9322 23.8546 14.6537V39.1515C23.8546 39.1515 23.8901 41.1787 22.7531 42.7935C21.8293 44.1335 19.6974 45.3017 19.6974 45.3017L10.921 51.0053C10.921 51.0053 7.33235 53.4104 3.28174 51.9673C0.261554 50.8678 -0.235891 48.9094 0.0838941 47.1571C0.403679 45.4048 2.57111 44.374 3.92131 44.4427C5.55577 44.5115 6.87044 45.0612 7.65213 46.9509C8.2917 48.4971 8.78915 49.0125 9.6419 49.0812C10.4591 49.1155 11.2408 48.0504 11.2408 46.092V14.6537C11.2408 13.9666 10.6368 13.3825 9.92616 13.3825H8.04298V13.4168Z" fill="#00B085"/>
<path d="M71.5026 6.88787V30.3205C71.5026 30.3205 71.5026 31.5918 70.4367 32.279C70.4367 32.279 62.5131 37.2266 62.0512 37.5358C61.6603 37.7764 60.7365 38.1543 59.9548 37.5702C59.3863 37.1579 59.3152 36.2302 59.3152 36.2302V6.85352H71.5026V6.88787Z" fill="#00B085"/>
</svg>
